<svg viewBox="0 0 200 300" xmlns="http://www.w3.org/2000/svg">
  <!-- Contenedor Verde -->
  <defs>
    <linearGradient id="gradientVerde" x1="0%" y1="0%" x2="100%" y2="0%">
      <stop offset="0%" style="stop-color:#15803d;stop-opacity:1" />
      <stop offset="100%" style="stop-color:#166534;stop-opacity:1" />
    </linearGradient>
    <linearGradient id="gradientNegroVerde" x1="0%" y1="0%" x2="100%" y2="0%">
      <stop offset="0%" style="stop-color:#1f2937;stop-opacity:1" />
      <stop offset="100%" style="stop-color:#374151;stop-opacity:1" />
    </linearGradient>
  </defs>
  
  <!-- Cuerpo principal del contenedor -->
  <rect x="30" y="60" width="140" height="160" fill="url(#gradientVerde)" stroke="#047857" stroke-width="1" rx="8"/>
  
  <!-- Tapa del contenedor -->
  <rect x="25" y="35" width="150" height="30" fill="#059669" stroke="#047857" stroke-width="1" rx="4"/>
  <ellipse cx="100" cy="35" rx="75" ry="12" fill="#10b981" stroke="#047857" stroke-width="1"/>
  
  <!-- Sombra en la tapa -->
  <ellipse cx="100" cy="38" rx="73" ry="10" fill="none" stroke="#047857" stroke-width="0.5" opacity="0.5"/>
  
  <!-- Ruedas izquierda -->
  <circle cx="50" cy="230" r="8" fill="url(#gradientNegroVerde)" stroke="#111827" stroke-width="1"/>
  <circle cx="50" cy="230" r="5" fill="none" stroke="#111827" stroke-width="1"/>
  
  <!-- Ruedas derecha -->
  <circle cx="150" cy="230" r="8" fill="url(#gradientNegroVerde)" stroke="#111827" stroke-width="1"/>
  <circle cx="150" cy="230" r="5" fill="none" stroke="#111827" stroke-width="1"/>
  
  <!-- Eje de ruedas -->
  <line x1="50" y1="240" x2="150" y2="240" stroke="#111827" stroke-width="2"/>
  
  <!-- Símbolo centrado -->
  <g transform="translate(72, 110) scale(0.11)">
    <path d="M0 0 C15.26637354 11.79296158 24.93277295 25.91680514 34.515625 42.46875 C37.67943487 47.92691879 40.96627957 53.29960717 44.3046875 58.65234375 C51.24126038 69.78989457 58.0608927 80.99731829 64.8671875 92.21484375 C67.03507785 90.98779346 69.20176257 89.75873373 71.3671875 88.52734375 C72.0070459 88.16374756 72.6469043 87.80015137 73.30615234 87.42553711 C76.75717677 85.45445947 80.15344221 83.43546808 83.4921875 81.27734375 C88.49787742 78.21831102 93.01674316 77.61226989 98.8671875 78.21484375 C105.50516772 80.3524984 109.33321106 83.41136956 112.6796875 89.52734375 C115.14291596 97.17631635 113.4864501 103.89066768 111.54394531 111.45117188 C111.29677765 112.44410751 111.04960999 113.43704315 110.79495239 114.46006775 C109.97956297 117.72454173 109.15042604 120.98533545 108.3203125 124.24609375 C107.74640834 126.52463923 107.17307311 128.80332809 106.60028076 131.08215332 C105.39918234 135.85143453 104.19127389 140.61892473 102.97851562 145.38525391 C101.42793688 151.48151947 99.89425223 157.58188476 98.36565018 163.68369293 C97.18507663 168.38839536 95.99559047 173.09080928 94.80342865 177.79258728 C94.23458612 180.04047493 93.66847796 182.28905643 93.10520172 184.53834534 C92.31515587 187.68743888 91.51314894 190.83325268 90.70800781 193.97851562 C90.47926971 194.90031113 90.25053162 195.82210663 90.01486206 196.77183533 C86.21796433 211.43504892 86.21796433 211.43504892 80.3046875 215.15234375 C79.43650391 215.72275391 79.43650391 215.72275391 78.55078125 216.3046875 C69.3525186 221.27729817 57.96847414 217.12273347 48.51953125 214.77734375 C47.02128221 214.4143711 45.52278663 214.05241476 44.02406311 213.69140625 C40.07726344 212.73785335 36.13391129 211.77074307 32.19116211 210.80059814 C28.30192028 209.84599319 24.40966759 208.90385186 20.51757812 207.9609375 C15.89704141 206.84088769 11.27723072 205.71811724 6.6602478 204.58349609 C-0.29167612 202.87556576 -7.24498998 201.17904025 -14.21661854 199.55307007 C-17.2573661 198.84379375 -20.29632882 198.12702206 -23.33529472 197.41015625 C-24.76129995 197.07623601 -26.18822263 196.74620556 -27.61610603 196.42041016 C-45.98150941 192.22798189 -45.98150941 192.22798189 -51.1328125 184.21484375 C-53.72852636 178.89981062 -53.39625622 173.86806275 -52.1328125 168.21484375 C-48.09257628 160.28400968 -40.72684857 156.17488557 -33.2578125 151.90234375 C-32.4740625 151.44794922 -31.6903125 150.99355469 -30.8828125 150.52539062 C-28.96900756 149.4167841 -27.05238078 148.31343039 -25.1328125 147.21484375 C-26.66684809 141.50125012 -29.54943759 137.02324415 -32.6953125 132.08984375 C-33.86334998 130.23263226 -35.02993661 128.37450776 -36.1953125 126.515625 C-36.824375 125.51354004 -37.4534375 124.51145508 -38.1015625 123.47900391 C-42.2343258 116.8377725 -46.26403662 110.13320284 -50.306427 103.43670654 C-51.36335549 101.68631229 -52.42185191 99.9368735 -53.48046875 98.1875 C-54.39324585 96.67555054 -54.39324585 96.67555054 -55.32446289 95.13305664 C-57.1968342 92.11152913 -59.14529803 89.1614702 -61.1328125 86.21484375 C-68.21435329 100.7834169 -75.02584409 115.45814593 -81.65258789 130.23803711 C-84.77424634 137.18033027 -87.97841803 144.07641752 -91.33984375 150.90625 C-91.65958664 151.5654393 -91.97932953 152.2246286 -92.3087616 152.90379333 C-95.11541872 158.53636899 -97.94944835 162.9644518 -103.5703125 165.96484375 C-104.68212891 166.57585937 -104.68212891 166.57585937 -105.81640625 167.19921875 C-113.69669846 170.65432157 -120.8210189 169.58744072 -128.56933594 166.67504883 C-135.72090805 163.74455056 -142.71003495 160.45126148 -149.71069336 157.17993164 C-152.4265474 155.91111062 -155.14558001 154.64932323 -157.86523438 153.38867188 C-162.9651514 151.01986781 -168.05332263 148.6271244 -173.1328125 146.21484375 C-174.22038345 145.69931442 -174.22038345 145.69931442 -175.32992554 145.17337036 C-177.27955894 144.24384009 -179.22293824 143.30261647 -181.1640625 142.35546875 C-182.22818359 141.83887695 -183.29230469 141.32228516 -184.38867188 140.79003906 C-190.40901178 137.33423541 -194.63381357 132.03708559 -196.69140625 125.3984375 C-198.02317324 118.81031583 -197.80053402 113.16498576 -195.109375 106.96484375 C-194.65530273 105.91651367 -194.20123047 104.86818359 -193.73339844 103.78808594 C-190.53954134 96.6579315 -187.28811404 89.55560386 -184.0078125 82.46484375 C-182.48631341 79.1734843 -180.96548937 75.8818141 -179.4453125 72.58984375 C-179.0724411 71.78291077 -178.6995697 70.97597778 -178.31539917 70.14459229 C-176.113712 65.37109652 -173.94936318 60.58367566 -171.8203125 55.77734375 C-171.3370752 54.69420898 -170.85383789 53.61107422 -170.35595703 52.49511719 C-169.49275964 50.55487705 -168.63868413 48.61053698 -167.79638672 46.66113281 C-160.82967227 31.08984358 -148.8491793 22.22923818 -134.5078125 13.77734375 C-133.24723261 13.02563997 -131.98714464 12.27311065 -130.72753906 11.51977539 C-128.2796633 10.05718153 -125.82901529 8.5994239 -123.37597656 7.14550781 C-120.7481925 5.58118108 -118.13387492 4.00014876 -115.53125 2.39453125 C-79.29140592 -19.94631057 -36.44251413 -25.72703234 0 0 Z M-98.1328125 13.21484375 C-98.4628125 13.87484375 -98.7928125 14.53484375 -99.1328125 15.21484375 C-98.22402344 15.52615234 -98.22402344 15.52615234 -97.296875 15.84375 C-83.64363393 20.86394172 -73.91629122 29.58758609 -66.4453125 41.90234375 C-65.67622559 43.14455688 -65.67622559 43.14455688 -64.89160156 44.41186523 C-60.83487031 50.9894944 -56.86248996 57.61929808 -52.90429688 64.2565918 C-48.81186307 71.11377641 -44.63923916 77.91933691 -40.4453125 84.71484375 C-33.93809835 95.26036769 -27.48660302 105.83810791 -21.06762695 116.4375 C-20.40851318 117.52546875 -19.74939941 118.6134375 -19.0703125 119.734375 C-18.42835938 120.7960791 -17.78640625 121.8577832 -17.125 122.95166016 C-15.72770342 125.24041826 -14.31915598 127.51762849 -12.890625 129.78662109 C-12.52332275 130.37311935 -12.15602051 130.95961761 -11.77758789 131.56388855 C-10.75548236 133.19315024 -9.72753067 134.81874016 -8.69921875 136.4440918 C-6.00283349 141.2136174 -5.57354949 145.76994349 -6.1328125 151.21484375 C-9.36349159 160.71684108 -19.08234967 165.13739391 -27.34375 169.68945312 C-28.0759375 170.10388672 -28.808125 170.51832031 -29.5625 170.9453125 C-30.55612549 171.49288208 -30.55612549 171.49288208 -31.56982422 172.05151367 C-33.45291394 173.22145733 -33.45291394 173.22145733 -34.1328125 176.21484375 C-21.01680272 179.3480151 -7.89993631 182.47757169 5.21804523 185.60247803 C11.30879637 187.05351013 17.39924198 188.50579979 23.48901367 189.9609375 C29.3627013 191.36439397 35.23715939 192.76458092 41.11217308 194.16247559 C43.35680252 194.69717306 45.60114873 195.23306093 47.84520912 195.7701416 C50.98111363 196.5204592 54.11798591 197.26659085 57.25512695 198.01171875 C58.18876572 198.23613647 59.12240448 198.4605542 60.08433533 198.69177246 C60.93828888 198.89371216 61.79224243 199.09565186 62.67207336 199.30371094 C63.41411672 199.48069519 64.15616007 199.65767944 64.92068958 199.84002686 C67.02779164 200.30938672 67.02779164 200.30938672 69.8671875 200.21484375 C72.22469568 191.05030749 74.58114891 181.88550074 76.93637943 172.72037888 C78.03091309 168.46124746 79.12576436 164.20219831 80.22143555 159.94335938 C84.50907428 143.27638395 88.79146309 126.60808681 92.98828125 109.91796875 C93.28388443 108.74852722 93.57948761 107.57908569 93.88404846 106.37420654 C94.14846237 105.3177594 94.41287628 104.26131226 94.68530273 103.17285156 C95.03032082 101.79894257 95.03032082 101.79894257 95.38230896 100.39727783 C95.93948248 98.26205283 95.93948248 98.26205283 95.8671875 96.21484375 C90.71256613 97.95739794 86.32260727 100.90631017 81.7421875 103.77734375 C80.13716221 104.78144145 78.53045946 105.78286411 76.921875 106.78125 C76.21530762 107.22412354 75.50874023 107.66699707 74.78076172 108.12329102 C70.02544269 110.83584924 65.1851661 110.66354819 59.8671875 110.21484375 C50.32738197 106.9749098 45.98054452 96.72990236 41.1171875 88.58984375 C40.37310317 87.35326915 39.62846424 86.11702813 38.88330078 84.88110352 C37.32981666 82.30340759 35.77874184 79.72428601 34.22949219 77.14404297 C30.77977912 71.40182613 27.30665406 65.67382639 23.83093262 59.94732666 C22.77422107 58.20515658 21.71946711 56.46181454 20.66503906 54.71826172 C5.26974213 29.31715324 -9.67912003 10.39447467 -39.1328125 2.21484375 C-59.87905934 -2.48433674 -80.17305732 2.65834643 -98.1328125 13.21484375 Z M-146.08276367 45.43505859 C-149.99249605 50.73650112 -152.52821307 56.72878135 -155.1953125 62.71484375 C-155.8308734 64.1118483 -156.46778267 65.50824012 -157.10595703 66.90405273 C-158.44004841 69.82805032 -159.76472051 72.75607682 -161.08349609 75.68701172 C-162.80758416 79.51002561 -164.56513038 83.31651609 -166.33622742 87.11795044 C-167.73141927 90.11257382 -169.11855155 93.11088985 -170.50436401 96.10986328 C-171.16835561 97.54410613 -171.83476348 98.97723305 -172.50369263 100.40917969 C-173.43855578 102.41460672 -174.3612943 104.42519944 -175.28125 106.4375 C-175.80895996 107.57968994 -176.33666992 108.72187988 -176.88037109 109.89868164 C-178.23560202 113.48700555 -179.05139948 116.37098636 -179.1328125 120.21484375 C-176.5818734 124.75843698 -173.26714502 126.46702003 -168.62109375 128.59765625 C-167.98361206 128.89417084 -167.34613037 129.19068542 -166.68933105 129.4961853 C-164.6137869 130.45729557 -162.53019158 131.39917578 -160.4453125 132.33984375 C-159.00640566 132.99858738 -157.56785046 133.65809964 -156.12963867 134.31835938 C-153.21392079 135.65339168 -150.29426128 136.97921409 -147.37109375 138.29785156 C-144.66254051 139.52011234 -141.95905991 140.75221462 -139.26171875 141.99902344 C-135.82914217 143.58506596 -132.38908168 145.15328192 -128.9453125 146.71484375 C-127.40774292 147.42664795 -127.40774292 147.42664795 -125.83911133 148.15283203 C-124.89060303 148.5754834 -123.94209473 148.99813477 -122.96484375 149.43359375 C-122.14733643 149.80419922 -121.3298291 150.17480469 -120.48754883 150.55664062 C-117.5569782 151.37580272 -116.0006855 151.22390488 -113.1328125 150.21484375 C-108.93859842 147.06086232 -107.21141076 142.67543841 -105.11328125 138.015625 C-104.73745911 137.1997995 -104.36163696 136.383974 -103.97442627 135.54342651 C-102.74786271 132.87521494 -101.53402382 130.20142279 -100.3203125 127.52734375 C-99.47544129 125.68300561 -98.62981278 123.83901421 -97.78344727 121.99536133 C-95.63616983 117.31162438 -93.49977294 112.62302605 -91.36791992 107.93225098 C-90.18346775 105.32629232 -88.99734492 102.72110195 -87.81054688 100.11621094 C-83.73651337 91.17269777 -83.73651337 91.17269777 -79.6784668 82.22192383 C-79.38389587 81.5710379 -79.08932495 80.92015198 -78.78582764 80.24954224 C-78.00160326 78.51588771 -77.21841007 76.78176682 -76.43530273 75.04760742 C-75.64790965 73.33511971 -74.82915148 71.63593884 -73.95361328 69.96679688 C-72.69529351 67.28098406 -73.1864058 66.03050186 -74.1328125 63.21484375 C-80.92196153 49.84025355 -88.66543045 37.76366885 -103.1328125 32.21484375 C-119.49333183 27.10886468 -135.0435075 32.67990262 -146.08276367 45.43505859 Z " fill="#000000" transform="translate(316.1328125,16.78515625)"/>
    <path d="M0 0 C6.02008209 4.59780163 9.41042723 10.87831925 13.17333984 17.32275391 C13.90108945 18.54850029 14.62995615 19.77358403 15.35986328 20.99804688 C16.90995 23.60298053 18.45241454 26.21222667 19.98974609 28.82470703 C22.49769055 33.08210808 25.03746663 37.32007783 27.57958984 41.55712891 C28.86174172 43.69874091 30.143108 45.84081981 31.4239502 47.98321533 C32.24746483 49.36050031 33.07158797 50.73742165 33.8963623 52.11395264 C43.44976004 68.08007227 48.7406523 79.84121934 48.75927734 98.66259766 C48.76572049 100.2022768 48.77244992 101.74195476 48.77944946 103.28163147 C48.79138762 106.50508451 48.79513434 109.72843073 48.79394531 112.9519043 C48.79374339 117.03298249 48.82092863 121.11335439 48.85548973 125.19426632 C48.87801345 128.37668336 48.88177504 131.55893798 48.88072586 134.74142647 C48.88304828 136.24296033 48.89167598 137.74450109 48.90739059 139.24595451 C49.15896638 165.78668297 39.50659309 188.94475702 21.26318359 208.25634766 C2.78380146 225.76981985 -20.71357879 235.1823519 -46.19580078 235.0612793 C-47.42650299 235.06149834 -47.42650299 235.06149834 -48.68206787 235.0617218 C-51.36570985 235.06103097 -54.04928046 235.0532778 -56.73291016 235.04541016 C-58.60477663 235.04354303 -60.4766436 235.04212052 -62.34851074 235.04112244 C-67.25408295 235.03732049 -72.15962513 235.02751023 -77.06518555 235.01641846 C-82.07942295 235.00615421 -87.09366525 235.00161411 -92.10791016 234.99658203 C-101.93083995 234.98588571 -111.75374755 234.96883743 -121.57666016 234.94775391 C-121.56094971 235.72376953 -121.54523926 236.49978516 -121.52905273 237.29931641 C-121.46631342 240.84872009 -121.42754568 244.39800666 -121.38916016 247.94775391 C-121.36402344 249.16849609 -121.33888672 250.38923828 -121.31298828 251.64697266 C-121.19459353 266.248992 -121.19459353 266.248992 -125.95849609 271.45898438 C-130.58740139 275.51690418 -134.26961021 277.24419742 -140.38916016 277.32275391 C-141.38560547 277.35111328 -142.38205078 277.37947266 -143.40869141 277.40869141 C-150.83601549 276.32802033 -155.75454843 271.19837554 -160.79541016 266.05712891 C-161.4569812 265.39368469 -162.11855225 264.73024048 -162.8001709 264.04669189 C-164.19192915 262.64824289 -165.58010101 261.24621641 -166.96484375 259.84082031 C-169.06345691 257.71115253 -171.1724517 255.59224155 -173.28369141 253.47509766 C-174.64238659 252.10722589 -176.00047929 250.73875535 -177.35791016 249.36962891 C-177.97790894 248.74538025 -178.59790771 248.12113159 -179.23669434 247.47796631 C-182.25499921 244.41113007 -185.16885156 241.29789491 -187.97436523 238.03466797 C-191.90081998 233.49921794 -196.14410339 229.3262363 -200.43212891 225.13525391 C-202.12332563 223.46643038 -203.81406736 221.79714567 -205.50439453 220.12744141 C-208.13970874 217.52926508 -210.77791636 214.93430451 -213.42407227 212.34716797 C-215.99848553 209.8273772 -218.55989936 207.29494854 -221.11962891 204.76025391 C-221.908228 203.99543701 -222.69682709 203.23062012 -223.50932312 202.44262695 C-228.61704758 197.35933603 -232.75730019 192.5026211 -234.07275391 185.18994141 C-234.05341797 184.40876953 -234.03408203 183.62759766 -234.01416016 182.82275391 C-234.01287109 182.03642578 -234.01158203 181.25009766 -234.01025391 180.43994141 C-231.96788418 168.70091542 -219.16261414 159.3963029 -211.02366257 151.31959152 C-209.30468291 149.61362034 -207.58906167 147.9043304 -205.87417603 146.19424438 C-202.23618007 142.56755348 -198.59422884 138.94485128 -194.95166016 135.32275391 C-190.71722416 131.11206528 -186.4845059 126.899678 -182.25600052 122.68303299 C-180.5792619 121.01269657 -178.89950441 119.34543948 -177.21957397 117.67831421 C-171.79102297 112.27566525 -166.52746459 106.79739964 -161.57666016 100.94775391 C-156.27927591 95.06390789 -151.24055414 89.81633829 -143.13134766 88.57275391 C-137.13821456 88.27951192 -132.48337399 89.46080681 -127.57666016 92.94775391 C-117.47861385 103.04580021 -121.57666016 117.51902607 -121.57666016 130.94775391 C-97.15666016 130.94775391 -72.73666016 130.94775391 -47.57666016 130.94775391 C-56.57262599 116.13086901 -65.56169051 101.33608841 -74.69384766 86.60791016 C-77.37840605 82.2720715 -80.05523555 77.93199112 -82.70166016 73.57275391 C-83.38486328 72.45126953 -84.06806641 71.32978516 -84.77197266 70.17431641 C-89.79481399 61.19408493 -91.17013944 53.2537061 -88.95556641 43.10009766 C-85.32676889 32.66528879 -76.29646048 26.69460388 -67.38134766 20.92822266 C-66.4302713 20.30297195 -65.47919495 19.67772125 -64.4992981 19.03352356 C-62.50377063 17.72416155 -60.50525805 16.4193386 -58.50390625 15.11889648 C-55.44726954 13.13240046 -52.39997935 11.13219077 -49.35400391 9.12939453 C-47.40531196 7.85319914 -45.45611059 6.57778121 -43.50634766 5.30322266 C-42.14677444 4.41258369 -42.14677444 4.41258369 -40.75973511 3.50395203 C-27.66491709 -4.99295124 -14.16792916 -9.45552411 0 0 Z M-38.37353516 23.69384766 C-39.17019592 24.227444 -39.96685669 24.76104034 -40.78765869 25.31080627 C-42.45612869 26.4307218 -44.12325025 27.5526487 -45.7890625 28.67651367 C-48.32807725 30.38620813 -50.87595526 32.08211066 -53.42431641 33.77783203 C-55.0537844 34.87400267 -56.68270978 35.97098041 -58.31103516 37.06884766 C-59.44397003 37.8191349 -59.44397003 37.8191349 -60.59979248 38.58457947 C-65.04977196 41.61191246 -68.45714121 44.53508005 -71.57666016 48.94775391 C-72.36927946 54.35692685 -71.1837645 57.47462139 -68.38916016 62.07275391 C-68.0353125 62.6634668 -67.68146484 63.25417969 -67.31689453 63.86279297 C-66.08730286 65.90209046 -64.83335319 67.92505459 -63.57666016 69.94775391 C-62.62188395 71.50222702 -61.66747356 73.05692488 -60.71337891 74.61181641 C-58.55865382 78.11200426 -56.39144413 81.60413882 -54.21728516 85.09228516 C-50.9259671 90.37595498 -47.66458699 95.67748209 -44.41723633 100.98828125 C-43.0296642 103.24294416 -41.62885359 105.48951606 -40.21459961 107.72753906 C-34.53634613 116.74398321 -34.53634613 116.74398321 -32.51025391 121.70947266 C-30.76552232 125.75153938 -29.296425 128.3539473 -25.57666016 130.94775391 C-12.29564501 133.91984219 1.42796839 132.21693028 13.42333984 125.94775391 C22.37053076 120.16427194 27.10967342 111.88875317 30.42333984 101.94775391 C30.59940626 99.43087007 30.70046506 96.96643873 30.73583984 94.44775391 C30.76484375 93.79033203 30.79384766 93.13291016 30.82373047 92.45556641 C30.96661875 80.98053846 24.70080445 71.52741691 18.79833984 62.13525391 C17.27523124 59.68303772 15.75785624 57.22728537 14.23974609 54.77197266 C13.84826889 54.14124847 13.45679169 53.51052429 13.05345154 52.86068726 C10.13510252 48.14532639 7.30888747 43.38119138 4.51318359 38.59228516 C3.70627821 37.21756084 2.89915165 35.84296631 2.09179688 34.46850586 C0.92028774 32.47386105 -0.24708709 30.47741978 -1.40093994 28.47250366 C-2.47215384 26.61312306 -3.55970602 24.76422205 -4.65087891 22.91650391 C-5.26535889 21.85882813 -5.87983887 20.80115234 -6.51293945 19.71142578 C-9.42073254 15.81739789 -12.5837705 13.34633184 -17.38916016 12.38525391 C-25.06001141 13.73893354 -31.99767135 19.40839649 -38.37353516 23.69384766 Z M-144.36962891 109.51025391 C-145.50631797 110.6509501 -146.63759549 111.79705764 -147.76416016 112.94775391 C-148.31652344 113.50076172 -148.86888672 114.05376953 -149.43798828 114.62353516 C-152.24305351 117.45792162 -154.93497232 120.34377037 -157.51171875 123.38720703 C-162.74168219 129.38410682 -168.43654872 134.93122189 -174.07275391 140.54150391 C-175.27366218 141.74054345 -176.47434716 142.93980667 -177.67481995 144.13928223 C-180.81088301 147.27155598 -183.94993905 150.400813 -187.08966064 153.52941895 C-190.30266017 156.7321266 -193.51277487 159.93772298 -196.72314453 163.14306641 C-203.00485387 169.41410179 -209.28973373 175.68194914 -215.57666016 181.94775391 C-214.10903328 185.34180303 -212.22490719 187.53780049 -209.60522461 190.13037109 C-208.78709793 190.94511902 -207.96897125 191.75986694 -207.12605286 192.5993042 C-206.23963608 193.47226135 -205.3532193 194.34521851 -204.43994141 195.24462891 C-203.04482131 196.63179897 -201.64970392 198.01897176 -200.25474072 199.40629959 C-198.29875948 201.3491576 -196.33828084 203.28744615 -194.37774658 205.22570801 C-190.96685274 208.59870148 -187.56055263 211.97631557 -184.15800476 215.35772705 C-182.34880611 217.15478343 -180.53694119 218.94916085 -178.72200012 220.74041748 C-174.35132824 225.07685875 -170.15201869 229.47891681 -166.14143372 234.15020752 C-162.41924848 238.42609816 -158.3388798 242.37146754 -154.33178711 246.37792969 C-152.74449681 247.96744481 -151.16542463 249.56485048 -149.58642578 251.16259766 C-148.57714809 252.17480316 -147.56740012 253.18654002 -146.55712891 254.19775391 C-145.64858154 255.11041016 -144.74003418 256.02306641 -143.80395508 256.96337891 C-141.82495173 259.16949285 -141.82495173 259.16949285 -139.57666016 258.94775391 C-139.56731445 258.07562256 -139.55796875 257.20349121 -139.54833984 256.30493164 C-139.50408865 253.04097221 -139.44237342 249.77828177 -139.36914062 246.51489258 C-139.34107271 245.10778687 -139.31978812 243.70052764 -139.30566406 242.29321289 C-139.14591079 227.27108022 -139.14591079 227.27108022 -134.57666016 221.94775391 C-129.19838532 218.24275531 -125.41044813 217.368082 -118.95776367 217.44946289 C-117.7073101 217.44118469 -117.7073101 217.44118469 -116.43159485 217.43273926 C-114.63053802 217.42345301 -112.82941552 217.42328607 -111.02835274 217.43133354 C-108.1624481 217.44403881 -105.29749636 217.43260064 -102.43162537 217.41529846 C-97.36608224 217.38862445 -92.3007742 217.38300071 -87.23516846 217.38439941 C-79.16135762 217.38662777 -71.08784134 217.372047 -63.01414299 217.32881355 C-60.21821436 217.31910851 -57.42276389 217.32762753 -54.62684631 217.33750916 C-30.56601411 217.30927655 -8.9991016 211.67261183 8.89208984 194.60400391 C22.83580827 179.97170679 31.05622893 161.11987304 30.62817383 140.87402344 C30.57418613 139.23140167 30.50100111 137.58942673 30.42333984 135.94775391 C29.13363281 136.74439453 29.13363281 136.74439453 27.81787109 137.55712891 C26.62429415 138.27139542 25.43025793 138.98489486 24.23583984 139.69775391 C23.67703125 140.04580078 23.11822266 140.39384766 22.54248047 140.75244141 C12.32092002 146.78483774 1.63463052 148.54580484 -10.07446289 148.46533203 C-11.99406075 148.47584595 -11.99406075 148.47584595 -13.95243835 148.48657227 C-17.41906174 148.5045951 -20.8852018 148.49783037 -24.35183215 148.48505592 C-27.99783676 148.47483286 -31.64380371 148.48434573 -35.28981018 148.49060059 C-41.40137067 148.49784374 -47.51273671 148.48837076 -53.62426758 148.46923828 C-60.67903125 148.44740738 -67.73333355 148.45457895 -74.78808635 148.4765439 C-80.86826212 148.49471203 -86.94829933 148.49725143 -93.02849346 148.48678923 C-96.65032812 148.48057074 -100.27194589 148.47967437 -103.8937664 148.49293518 C-107.92432813 148.50666729 -111.95409573 148.48762144 -115.98461914 148.46533203 C-117.77307251 148.47747742 -117.77307251 148.47747742 -119.59765625 148.48986816 C-125.88466053 148.42540938 -129.82512267 148.23007492 -134.57666016 143.94775391 C-138.41949768 139.57486983 -138.72468364 135.79324441 -138.89306641 130.09228516 C-138.9138475 129.43064865 -138.9346286 128.76901215 -138.95603943 128.08732605 C-139.02130743 125.97840539 -139.0803136 123.86936256 -139.13916016 121.76025391 C-139.18236705 120.32860076 -139.22598204 118.89695987 -139.27001953 117.46533203 C-139.37696521 113.95960236 -139.47829656 110.45373605 -139.57666016 106.94775391 C-141.96277415 106.7224035 -141.96277415 106.7224035 -144.36962891 109.51025391 Z " fill="#000000" transform="translate(463.57666015625,235.05224609375)"/>
    <path d="M0 0 C4.92082295 4.21784825 7.18995565 8.06338823 9.03222656 14.27050781 C9.23943455 14.96363697 9.44664253 15.65676613 9.66012955 16.3708992 C12.35011806 25.49715787 14.72342391 34.71266634 17.109375 43.921875 C17.6151669 45.86249296 18.12129722 47.80302275 18.62774658 49.74346924 C19.9459131 54.79773708 21.25944046 59.8531989 22.57196045 64.90893555 C23.91351889 70.07287001 25.25975336 75.2355851 26.60546875 80.3984375 C28.56580953 87.92224562 30.52460152 95.44645349 32.47949219 102.97167969 C32.68310867 103.75502686 32.88672516 104.53837402 33.09651184 105.34545898 C33.60743671 107.3132689 34.11634694 109.28160163 34.625 111.25 C34.80335011 111.90926105 34.98170021 112.56852211 35.16545486 113.24776077 C36.5616027 119.33078015 35.87936295 124.03993282 32.90234375 129.421875 C29.71893761 133.9779425 25.83321318 136.61932561 20.33984375 137.69921875 C10.2123084 138.56810716 3.05215225 133.6770627 -5.23193359 128.50854492 C-7.88237123 126.95203934 -10.61591007 125.60253839 -13.375 124.25 C-14.04535278 125.3949292 -14.04535278 125.3949292 -14.72924805 126.56298828 C-22.32333859 139.53116389 -29.91786858 152.49902694 -37.5625 165.4375 C-38.31696411 166.71488037 -38.31696411 166.71488037 -39.08666992 168.01806641 C-41.56164038 172.20290329 -44.04934854 176.37974821 -46.55200195 180.5480957 C-47.0833223 181.43318314 -47.61464264 182.31827057 -48.1620636 183.23017883 C-48.56233261 183.89671982 -48.96260162 184.5632608 -49.375 185.25 C-48.38021133 185.24111755 -47.38542267 185.23223511 -46.36048889 185.2230835 C-36.95974075 185.14179841 -27.55906444 185.08193926 -18.15804386 185.04275131 C-13.32550914 185.02192664 -8.49325941 184.99370309 -3.66088867 184.94824219 C1.00755658 184.90460109 5.67572867 184.88082442 10.34436226 184.87049103 C12.12047179 184.86313232 13.89656732 184.84876272 15.67255974 184.82707977 C33.55015594 184.61760572 33.55015594 184.61760572 40.625 189.25 C41.6975 189.95125 42.77 190.6525 43.875 191.375 C52.20553663 200.08419739 52.34852764 209.53497187 52.21875 220.9140625 C52.21703526 222.51728221 52.21710827 224.12050471 52.21887207 225.72372437 C52.21722715 229.06739493 52.1986799 232.41038829 52.16699219 235.75390625 C52.12725244 240.02185354 52.12295967 244.28891905 52.13045502 248.55701637 C52.13353575 251.86178548 52.1213662 255.1663594 52.10432434 258.47108078 C52.09733634 260.04421132 52.09416466 261.61736396 52.09501648 263.1905098 C52.07934048 282.23069569 52.07934048 282.23069569 45.21484375 289.8671875 C38.55271441 295.66176683 31.80900662 297.39731007 23.20117188 297.41113281 C22.45908478 297.41609772 21.71699768 297.42106262 20.9524231 297.42617798 C18.49952254 297.44076859 16.04668682 297.44759907 13.59375 297.453125 C11.87943522 297.45888228 10.16512044 297.46463993 8.45080566 297.47039795 C4.85294293 297.4809014 1.25510247 297.48674728 -2.34277344 297.49023438 C-6.92426738 297.49569504 -11.50546052 297.51967344 -16.08686066 297.54820633 C-19.63192564 297.56695844 -23.17692028 297.57204511 -26.72203064 297.57357025 C-28.40910981 297.57657282 -30.09618847 297.584519 -31.78321838 297.59775543 C-44.12344401 297.68760639 -55.48577488 297.07121581 -66.375 290.625 C-67.00744629 290.25528076 -67.63989258 289.88556152 -68.29150391 289.50463867 C-70.66492207 288.1060855 -73.0199165 286.67922346 -75.375 285.25 C-76.46135742 284.59499512 -77.54771484 283.93999023 -78.66699219 283.26513672 C-85.86063269 278.92779101 -93.03672237 274.56233518 -100.20239258 270.17895508 C-103.09316789 268.42135479 -105.99876117 266.69187555 -108.91015625 264.96875 C-130.6808779 251.92447404 -144.92942752 231.25726847 -151.46484375 207.02734375 C-155.59420727 189.88959902 -155.2552675 169.95237035 -149.375 153.25 C-149.15489258 152.62222656 -148.93478516 151.99445313 -148.70800781 151.34765625 C-144.36316147 139.49476999 -137.62176992 128.84237853 -131.09667969 118.09667969 C-128.31857299 113.50327014 -125.59914153 108.87554188 -122.875 104.25 C-121.80889065 102.44513709 -120.74248282 100.64045046 -119.67578125 98.8359375 C-119.14162598 97.93198242 -118.6074707 97.02802734 -118.05712891 96.09667969 C-113.16308594 87.81445312 -108.26904297 79.53222656 -103.375 71.25 C-105.52418916 68.93232114 -107.6555617 67.36380132 -110.39453125 65.796875 C-111.16990234 65.34183594 -111.94527344 64.88679688 -112.74414062 64.41796875 C-114.35751081 63.48167238 -115.97465201 62.55184046 -117.59570312 61.62890625 C-123.64056678 58.05898677 -129.08282219 54.12653342 -131.375 47.25 C-131.88248917 41.03325771 -132.1469833 35.48210587 -128.375 30.25 C-122.2094431 23.58902655 -114.99187174 22.07786772 -106.4609375 20.04296875 C-104.97806818 19.67369775 -103.49563863 19.30265686 -102.0136261 18.92996216 C-98.0752855 17.94484028 -94.13136589 16.98423691 -90.18563461 16.02920914 C-86.12296708 15.04223125 -82.06530517 14.03508652 -78.00708008 13.0300293 C-72.41963906 11.64835546 -66.83036215 10.27459693 -61.23842335 8.91124058 C-53.41278665 7.00319157 -45.60122321 5.04807411 -37.80078125 3.0390625 C-35.30154253 2.40237075 -32.80185321 1.76750133 -30.30181885 1.13394165 C-28.82981097 0.75830662 -27.35901365 0.37788942 -25.8895874 -0.00772095 C-16.9126373 -2.35507903 -8.5817481 -4.44979531 0 0 Z M-15.3984375 16.06538391 C-16.23971191 16.27147278 -17.08098633 16.47756165 -17.94775391 16.68989563 C-18.87249512 16.92411728 -19.79723633 17.15833893 -20.75 17.3996582 C-21.72243652 17.64013885 -22.69487305 17.88061951 -23.69677734 18.12838745 C-26.92466878 18.9287351 -30.14985673 19.73943583 -33.375 20.55078125 C-35.60927171 21.10833949 -37.84364809 21.66547843 -40.078125 22.22221375 C-44.76678862 23.39216449 -49.45413304 24.56723092 -54.140625 25.74584961 C-60.1577567 27.25867497 -66.17796548 28.75881419 -72.19921875 30.25513935 C-76.81574848 31.40385955 -81.43058038 32.55928104 -86.04492188 33.71675682 C-88.26444635 34.27264097 -90.48450019 34.82641571 -92.70507812 35.37807655 C-95.80514241 36.14929699 -98.90280946 36.92948892 -102 37.7121582 C-103.38711182 38.05438164 -103.38711182 38.05438164 -104.80224609 38.40351868 C-105.64352051 38.61806702 -106.48479492 38.83261536 -107.3515625 39.05366516 C-108.45105225 39.32938591 -108.45105225 39.32938591 -109.57275391 39.61067677 C-111.59391427 40.18223747 -111.59391427 40.18223747 -113.375 42.25 C-112.32441406 42.90226562 -111.27382812 43.55453125 -110.19140625 44.2265625 C-106.57372922 46.47592439 -102.96432709 48.73820715 -99.35839844 51.00634766 C-97.71512615 52.03673035 -96.06541167 53.0568308 -94.4140625 54.07421875 C-88.70237982 57.68908769 -86.08135135 60.22277994 -84.5 67 C-83.65946734 76.83196036 -90.1599329 85.46318515 -95 93.5 C-95.75539208 94.76906774 -96.50985068 96.03869154 -97.26342773 97.30883789 C-98.83361628 99.95367595 -100.40779873 102.59607304 -101.98486328 105.23681641 C-105.47472466 111.0874925 -108.91651893 116.96631626 -112.3583374 122.84533691 C-113.40031046 124.62401634 -114.44424547 126.40152866 -115.48876953 128.17871094 C-116.79781438 130.40888776 -118.10379083 132.64086885 -119.40649414 134.87475586 C-120.77934841 137.22868247 -122.15903946 139.57772992 -123.54467773 141.92407227 C-127.04896581 147.89961525 -130.27624951 153.65301887 -132.3125 160.3125 C-132.88291016 162.12427734 -132.88291016 162.12427734 -133.46484375 163.97265625 C-139.28654863 184.935791 -134.83922183 205.93293087 -124.39208984 224.53027344 C-122.07959155 228.44031616 -119.42230264 231.89188601 -116.375 235.25 C-115.78332031 235.92160156 -115.19164063 236.59320313 -114.58203125 237.28515625 C-109.27775909 242.96127429 -103.09092006 247.36509855 -96.375 251.25 C-95.715 251.25 -95.055 251.25 -94.375 251.25 C-94.36098145 250.3978894 -94.36098145 250.3978894 -94.34667969 249.52856445 C-94.29190861 246.87243583 -94.20849096 244.21787542 -94.125 241.5625 C-94.11082031 240.66982422 -94.09664062 239.77714844 -94.08203125 238.85742188 C-93.64778317 226.65505094 -89.52017076 216.53823441 -83.1875 206.25 C-81.93188311 204.15519275 -80.67669392 202.06012909 -79.421875 199.96484375 C-78.76251953 198.87413574 -78.10316406 197.78342773 -77.42382812 196.65966797 C-75.32358249 193.16443078 -73.25653348 189.65175988 -71.203125 186.12890625 C-70.8537085 185.52957779 -70.50429199 184.93024933 -70.14428711 184.3127594 C-69.43329003 183.09301161 -68.72235278 181.87322895 -68.01147461 180.65341187 C-61.70945143 169.8510436 -55.31257873 159.10797158 -48.85473633 148.39794922 C-43.76287827 139.93861922 -38.78246934 131.41685546 -33.8527832 122.86206055 C-33.308396 121.92144775 -32.76400879 120.98083496 -32.203125 120.01171875 C-31.7277832 119.18631592 -31.25244141 118.36091309 -30.76269531 117.51049805 C-29.375 115.25 -29.375 115.25 -27.69824219 113.07739258 C-26.17950081 111.3560458 -26.17950081 111.3560458 -26.375 109.25 C-23.52564407 107.71773766 -20.83653212 106.68292306 -17.6875 105.9375 C-16.89988281 105.73511719 -16.11226563 105.53273438 -15.30078125 105.32421875 C-7.15692087 105.11763217 -0.14322633 109.88715452 6.5625 114 C8.23386768 115.02287194 9.90944726 116.03890447 11.58984375 117.046875 C12.3180835 117.49385742 13.04632324 117.94083984 13.79663086 118.40136719 C14.39999268 118.68141602 15.00335449 118.96146484 15.625 119.25 C16.285 118.92 16.945 118.59 17.625 118.25 C14.69717338 107.01751407 11.76757031 95.78549308 8.83576584 84.55404472 C7.47412738 79.33752208 6.11307656 74.12084766 4.75341797 68.90380859 C3.43860416 63.85893188 2.12218241 58.81447716 0.80469513 53.770298 C0.30503579 51.85616798 -0.19406662 49.94189248 -0.69257355 48.02746201 C-2.23700824 42.0972245 -3.79647488 36.17125352 -5.375 30.25 C-5.6667234 29.14723598 -5.6667234 29.14723598 -5.96434021 28.02219391 C-6.49695608 26.02022385 -7.04061182 24.02166074 -7.58886719 22.02392578 C-7.88799011 20.92219025 -8.18711304 19.82045471 -8.49530029 18.68533325 C-9.94724687 14.6658096 -11.71248894 15.14674065 -15.3984375 16.06538391 Z M-64.48242188 207.60791016 C-65.57402628 209.95419606 -65.57402628 209.95419606 -66.375 212.25 C-67.03886719 213.301875 -67.70273438 214.35375 -68.38671875 215.4375 C-75.51879245 227.4074139 -78.91940046 238.71593627 -75.56640625 252.59765625 C-71.65989237 263.07360178 -64.51163644 270.54460785 -54.9296875 276.09375 C-49.29238086 278.64519154 -44.10121213 279.50106826 -37.94262695 279.50878906 C-36.88271545 279.51404602 -36.88271545 279.51404602 -35.8013916 279.51940918 C-33.48858535 279.52814203 -31.17609007 279.52240947 -28.86328125 279.515625 C-27.2461898 279.51697363 -25.62909874 279.51891581 -24.01200867 279.52142334 C-20.63386143 279.52436276 -17.25582039 279.52011345 -13.87768555 279.51074219 C-9.55000312 279.49932081 -5.22256806 279.50593149 -0.8948946 279.51788712 C2.43968063 279.5251143 5.77419719 279.52281432 9.10877419 279.51763153 C10.70476117 279.51629883 12.3007535 279.51792944 13.89673424 279.52259064 C16.12490344 279.52767305 18.35267123 279.51992304 20.58081055 279.50878906 C21.84765182 279.50719788 23.1144931 279.50560669 24.41972351 279.50396729 C27.47608232 279.26179936 29.13427574 278.98169301 31.625 277.25 C33.99872757 273.68940865 33.88278395 272.13985838 33.8996582 267.91430664 C33.90919022 266.60607437 33.91872223 265.2978421 33.92854309 263.94996643 C33.92828166 262.52002943 33.92734461 261.09009242 33.92578125 259.66015625 C33.9296683 258.19428892 33.93400299 256.72842272 33.93876648 255.26255798 C33.94622856 252.19005686 33.94593759 249.11767063 33.94067383 246.04516602 C33.93487984 242.10962226 33.95180807 238.17454922 33.9750185 234.23908329 C33.98975752 231.21159621 33.99062733 228.18422245 33.98750877 225.15670586 C33.98802193 223.7058462 33.99325863 222.2549802 34.00332069 220.80415535 C34.01566925 218.77450277 34.00695493 216.74475514 33.99731445 214.71508789 C33.99794388 213.56053604 33.9985733 212.40598419 33.9992218 211.21644592 C33.58484962 207.93172904 32.95217583 206.56906773 30.625 204.25 C26.83673772 202.98724591 23.25173407 203.0455448 19.30151367 202.99365234 C18.45239914 202.97904968 17.60328461 202.96444702 16.72843933 202.94940186 C8.90894431 202.82357962 1.08844826 202.75469654 -6.73184681 202.70155907 C-11.98515029 202.66575619 -17.23692765 202.61233929 -22.48950195 202.51611328 C-27.5700306 202.42332303 -32.64920754 202.37464509 -37.73053551 202.35716629 C-39.66555937 202.34306942 -41.60053541 202.31342328 -43.53507423 202.26786423 C-55.44302521 201.33021215 -55.44302521 201.33021215 -64.48242188 207.60791016 Z " fill="#000000" transform="translate(153.375,189.75)"/>
  </g>
  <!-- Sombrilla del contenedor (detalles) -->
  <rect x="35" y="65" width="130" height="10" fill="#0f766e" opacity="0.4" stroke="#047857" stroke-width="0.5"/>
</svg>